<mxfile host="app.diagrams.net" agent="Mozilla/5.0 (Windows NT 10.0; Win64; x64) AppleWebKit/537.36 (KHTML, like Gecko) Chrome/135.0.0.0 Safari/537.36" version="26.2.15">
  <diagram id="C5RBs43oDa-KdzZeNtuy" name="Page-1">
    <mxGraphModel dx="1613" dy="451" grid="1" gridSize="10" guides="1" tooltips="1" connect="1" arrows="1" fold="1" page="1" pageScale="1" pageWidth="827" pageHeight="1169" math="0" shadow="0">
      <root>
        <mxCell id="WIyWlLk6GJQsqaUBKTNV-0" />
        <mxCell id="WIyWlLk6GJQsqaUBKTNV-1" parent="WIyWlLk6GJQsqaUBKTNV-0" />
        <mxCell id="npuB7mUjXYXKk7TTvDz5-2" style="edgeStyle=orthogonalEdgeStyle;rounded=0;orthogonalLoop=1;jettySize=auto;html=1;exitX=0.5;exitY=1;exitDx=0;exitDy=0;entryX=0.5;entryY=0;entryDx=0;entryDy=0;" parent="WIyWlLk6GJQsqaUBKTNV-1" target="npuB7mUjXYXKk7TTvDz5-1" edge="1">
          <mxGeometry relative="1" as="geometry">
            <mxPoint x="130" y="350" as="sourcePoint" />
          </mxGeometry>
        </mxCell>
        <mxCell id="npuB7mUjXYXKk7TTvDz5-1" value="&lt;font style=&quot;font-size: 14px;&quot;&gt;Elasticsearch&lt;/font&gt;" style="rounded=1;whiteSpace=wrap;html=1;" parent="WIyWlLk6GJQsqaUBKTNV-1" vertex="1">
          <mxGeometry x="70" y="430" width="120" height="60" as="geometry" />
        </mxCell>
        <mxCell id="npuB7mUjXYXKk7TTvDz5-3" value="&lt;font style=&quot;font-size: 14px;&quot;&gt;(1) Populate Database&lt;/font&gt;" style="text;html=1;align=center;verticalAlign=middle;whiteSpace=wrap;rounded=0;" parent="WIyWlLk6GJQsqaUBKTNV-1" vertex="1">
          <mxGeometry x="150" y="380" width="60" height="30" as="geometry" />
        </mxCell>
        <mxCell id="npuB7mUjXYXKk7TTvDz5-6" style="edgeStyle=orthogonalEdgeStyle;rounded=0;orthogonalLoop=1;jettySize=auto;html=1;exitX=0.5;exitY=0;exitDx=0;exitDy=0;entryX=0.5;entryY=1;entryDx=0;entryDy=0;" parent="WIyWlLk6GJQsqaUBKTNV-1" source="npuB7mUjXYXKk7TTvDz5-4" target="npuB7mUjXYXKk7TTvDz5-1" edge="1">
          <mxGeometry relative="1" as="geometry" />
        </mxCell>
        <mxCell id="npuB7mUjXYXKk7TTvDz5-4" value="&lt;font style=&quot;font-size: 14px;&quot;&gt;Threat feed service&lt;/font&gt;" style="rounded=0;whiteSpace=wrap;html=1;" parent="WIyWlLk6GJQsqaUBKTNV-1" vertex="1">
          <mxGeometry x="70" y="560" width="120" height="60" as="geometry" />
        </mxCell>
        <mxCell id="npuB7mUjXYXKk7TTvDz5-5" value="&lt;font style=&quot;font-size: 14px;&quot;&gt;Threat feed cron job&lt;/font&gt;" style="rounded=0;whiteSpace=wrap;html=1;" parent="WIyWlLk6GJQsqaUBKTNV-1" vertex="1">
          <mxGeometry x="70" y="290" width="120" height="60" as="geometry" />
        </mxCell>
        <mxCell id="npuB7mUjXYXKk7TTvDz5-7" value="&lt;h1 style=&quot;margin-top: 0px;&quot;&gt;Microservice architecture&lt;/h1&gt;" style="text;html=1;whiteSpace=wrap;overflow=hidden;rounded=0;" parent="WIyWlLk6GJQsqaUBKTNV-1" vertex="1">
          <mxGeometry x="410" y="70" width="380" height="80" as="geometry" />
        </mxCell>
        <mxCell id="npuB7mUjXYXKk7TTvDz5-15" style="edgeStyle=orthogonalEdgeStyle;rounded=0;orthogonalLoop=1;jettySize=auto;html=1;exitX=0.5;exitY=1;exitDx=0;exitDy=0;entryX=1;entryY=0.5;entryDx=0;entryDy=0;" parent="WIyWlLk6GJQsqaUBKTNV-1" source="npuB7mUjXYXKk7TTvDz5-9" target="npuB7mUjXYXKk7TTvDz5-4" edge="1">
          <mxGeometry relative="1" as="geometry" />
        </mxCell>
        <mxCell id="npuB7mUjXYXKk7TTvDz5-9" value="&lt;font style=&quot;font-size: 14px;&quot;&gt;Load Balancer&lt;/font&gt;" style="rhombus;whiteSpace=wrap;html=1;" parent="WIyWlLk6GJQsqaUBKTNV-1" vertex="1">
          <mxGeometry x="250" y="420" width="104" height="80" as="geometry" />
        </mxCell>
        <mxCell id="npuB7mUjXYXKk7TTvDz5-11" value="" style="swimlane;startSize=0;" parent="WIyWlLk6GJQsqaUBKTNV-1" vertex="1">
          <mxGeometry x="10" y="170" width="410" height="500" as="geometry" />
        </mxCell>
        <mxCell id="npuB7mUjXYXKk7TTvDz5-12" value="&lt;font style=&quot;font-size: 18px;&quot;&gt;&lt;b&gt;Azure Kubernetes Service&lt;/b&gt;&lt;/font&gt;" style="text;html=1;align=center;verticalAlign=middle;whiteSpace=wrap;rounded=0;" parent="npuB7mUjXYXKk7TTvDz5-11" vertex="1">
          <mxGeometry x="85" y="40" width="240" height="30" as="geometry" />
        </mxCell>
        <mxCell id="npuB7mUjXYXKk7TTvDz5-16" value="&lt;font style=&quot;font-size: 14px;&quot;&gt;(3) Query Database&lt;/font&gt;" style="text;html=1;align=center;verticalAlign=middle;whiteSpace=wrap;rounded=0;" parent="npuB7mUjXYXKk7TTvDz5-11" vertex="1">
          <mxGeometry x="120" y="340" width="80" height="30" as="geometry" />
        </mxCell>
        <mxCell id="npuB7mUjXYXKk7TTvDz5-18" value="&lt;font style=&quot;font-size: 14px;&quot;&gt;Ingress Route&lt;/font&gt;" style="text;html=1;align=center;verticalAlign=middle;whiteSpace=wrap;rounded=0;" parent="npuB7mUjXYXKk7TTvDz5-11" vertex="1">
          <mxGeometry x="290" y="370" width="60" height="30" as="geometry" />
        </mxCell>
        <mxCell id="npuB7mUjXYXKk7TTvDz5-14" value="" style="endArrow=classic;html=1;rounded=0;entryX=1;entryY=0.5;entryDx=0;entryDy=0;" parent="WIyWlLk6GJQsqaUBKTNV-1" target="npuB7mUjXYXKk7TTvDz5-9" edge="1">
          <mxGeometry width="50" height="50" relative="1" as="geometry">
            <mxPoint x="670" y="460" as="sourcePoint" />
            <mxPoint x="590" y="400" as="targetPoint" />
          </mxGeometry>
        </mxCell>
        <mxCell id="npuB7mUjXYXKk7TTvDz5-17" value="&lt;font style=&quot;font-size: 18px;&quot;&gt;(2) Query microservice&lt;/font&gt;" style="text;html=1;align=center;verticalAlign=middle;whiteSpace=wrap;rounded=0;" parent="WIyWlLk6GJQsqaUBKTNV-1" vertex="1">
          <mxGeometry x="510" y="420" width="90" height="30" as="geometry" />
        </mxCell>
        <mxCell id="npuB7mUjXYXKk7TTvDz5-19" value="&lt;h1 style=&quot;margin-top: 0px;&quot;&gt;Example Usage&lt;/h1&gt;" style="text;html=1;whiteSpace=wrap;overflow=hidden;rounded=0;" parent="WIyWlLk6GJQsqaUBKTNV-1" vertex="1">
          <mxGeometry x="450" y="740" width="180" height="40" as="geometry" />
        </mxCell>
        <UserObject label="&lt;div style=&quot;color: #cccccc;background-color: #1f1f1f;font-family: Consolas, &#39;Courier New&#39;, monospace;font-weight: normal;font-size: 14px;line-height: 19px;white-space: pre;&quot;&gt;&lt;div&gt;&lt;span style=&quot;color: #cccccc;&quot;&gt;curl -s -X GET &quot;https://service.xvisor.ai/ipthreat/ipthreats.json?start=2025-04-13T17:38:15.842305Z&amp;amp;end=2025-04-27T17:38:15.842327Z&quot; \&lt;/span&gt;&lt;/div&gt;&lt;div&gt;&lt;span style=&quot;color: #cccccc;&quot;&gt;&amp;nbsp; -H &quot;Content-Type: application/json&quot; \&lt;/span&gt;&lt;/div&gt;&lt;div&gt;&lt;span style=&quot;color: #cccccc;&quot;&gt;&amp;nbsp; -d &#39;{&quot;ips&quot;:[&lt;/span&gt;&lt;span style=&quot;color: #ce9178;&quot;&gt;&quot;1.10.142.60&quot;&lt;/span&gt;&lt;span style=&quot;color: #cccccc;&quot;&gt;]}&#39;&lt;/span&gt;&lt;/div&gt;&lt;/div&gt;" link="&lt;div style=&quot;color: #cccccc;background-color: #1f1f1f;font-family: Consolas, &#39;Courier New&#39;, monospace;font-weight: normal;font-size: 14px;line-height: 19px;white-space: pre;&quot;&gt;&lt;div&gt;&lt;span style=&quot;color: #cccccc;&quot;&gt;curl -s -X GET &quot;https://service.xvisor.ai/ipthreat/ipthreats.json?start=2025-04-13T17:38:15.842305Z&amp;amp;end=2025-04-27T17:38:15.842327Z&quot; \&lt;/span&gt;&lt;/div&gt;&lt;div&gt;&lt;span style=&quot;color: #cccccc;&quot;&gt;&amp;nbsp; -H &quot;Content-Type: application/json&quot; \&lt;/span&gt;&lt;/div&gt;&lt;div&gt;&lt;span style=&quot;color: #cccccc;&quot;&gt;&amp;nbsp; -d &#39;{&quot;ips&quot;:[&lt;/span&gt;&lt;span style=&quot;color: #ce9178;&quot;&gt;&quot;1.10.142.60&quot;&lt;/span&gt;&lt;span style=&quot;color: #cccccc;&quot;&gt;]}&#39;&lt;/span&gt;&lt;/div&gt;&lt;/div&gt;" id="npuB7mUjXYXKk7TTvDz5-24">
          <mxCell style="text;whiteSpace=wrap;html=1;" parent="WIyWlLk6GJQsqaUBKTNV-1" vertex="1">
            <mxGeometry x="10" y="840" width="560" height="80" as="geometry" />
          </mxCell>
        </UserObject>
        <mxCell id="npuB7mUjXYXKk7TTvDz5-25" value="&lt;font style=&quot;font-size: 18px;&quot;&gt;&lt;b&gt;Query&lt;/b&gt;&lt;/font&gt;" style="text;html=1;align=center;verticalAlign=middle;whiteSpace=wrap;rounded=0;" parent="WIyWlLk6GJQsqaUBKTNV-1" vertex="1">
          <mxGeometry x="-40" y="800" width="170" height="30" as="geometry" />
        </mxCell>
        <mxCell id="npuB7mUjXYXKk7TTvDz5-26" value="&lt;font style=&quot;font-size: 18px;&quot;&gt;&lt;b&gt;Response&lt;/b&gt;&lt;/font&gt;" style="text;html=1;align=center;verticalAlign=middle;whiteSpace=wrap;rounded=0;" parent="WIyWlLk6GJQsqaUBKTNV-1" vertex="1">
          <mxGeometry x="30" y="940" width="60" height="30" as="geometry" />
        </mxCell>
        <mxCell id="npuB7mUjXYXKk7TTvDz5-27" value="&lt;div style=&quot;color: #cccccc;background-color: #1f1f1f;font-family: Consolas, &#39;Courier New&#39;, monospace;font-weight: normal;font-size: 14px;line-height: 19px;white-space: pre;&quot;&gt;&lt;div&gt;&lt;span style=&quot;color: #cccccc;&quot;&gt;[{&quot;ip&quot;:&quot;1.10.142.60&quot;,&quot;time&quot;:&quot;2025-04-27T00:00:05.31Z&quot;,&quot;threatFeeds&quot;:[&lt;/span&gt;&lt;span style=&quot;color: #ce9178;&quot;&gt;&quot;cinsScore&quot;&lt;/span&gt;&lt;span style=&quot;color: #cccccc;&quot;&gt;]}]&lt;/span&gt;&lt;/div&gt;&lt;br&gt;&lt;/div&gt;" style="text;whiteSpace=wrap;html=1;" parent="WIyWlLk6GJQsqaUBKTNV-1" vertex="1">
          <mxGeometry x="10" y="990" width="560" height="60" as="geometry" />
        </mxCell>
      </root>
    </mxGraphModel>
  </diagram>
</mxfile>
